Coordinates
version=1
nRows=14
nColumns=24
inDegrees=yes

Units are S.I. units (second, meters, Newtons, ...)
Angles are in degrees.

endheader
time	pelvis_tilt	pelvis_list	pelvis_rotation	pelvis_tx	pelvis_ty	pelvis_tz	hip_flexion_r	hip_adduction_r	hip_rotation_r	knee_angle_r	ankle_angle_r	subtalar_angle_r	mtp_angle_r	hip_flexion_l	hip_adduction_l	hip_rotation_l	knee_angle_l	ankle_angle_l	subtalar_angle_l	mtp_angle_l	lumbar_extension	lumbar_bending	lumbar_rotation
      0.96000000	     -7.33808323	      0.27739436	     -9.44670493	      0.06836539	      0.94913888	      0.00822748	     23.80819344	     -0.11777880	     -7.40239395	      1.19254868	     -0.00201260	      0.00000000	      0.00000000	     -7.70429042	      0.45664636	    -10.46171102	     -4.91351696	      9.24628813	      0.00000000	      0.00000000	      0.65770815	     -0.42311918	     -4.14291085
      0.97000000	     -7.33158609	      0.32024091	     -9.17467453	      0.06960466	      0.94833227	      0.00953837	     23.68474132	     -0.07440720	     -7.10760423	      0.82485715	     -0.13075770	      0.00000000	      0.00000000	     -7.99896133	      0.39864481	    -10.42380948	     -5.39150770	      9.12171562	      0.00000000	      0.00000000	      0.73138837	     -0.31358442	     -4.28836884
      0.98000000	     -7.27344387	      0.34205019	     -8.90501769	      0.07098155	      0.94761836	      0.01090090	     23.50190512	     -0.03040397	     -6.74645032	      0.28880170	     -0.35936125	      0.00000000	      0.00000000	     -8.29896155	      0.30719660	    -10.31286473	     -6.00383746	      9.00964552	      0.00000000	      0.00000000	      0.76065135	     -0.17887518	     -4.40467762
      0.99000000	     -7.18687169	      0.34428853	     -8.63650481	      0.07250837	      0.94697482	      0.01228528	     23.27552622	      0.01004649	     -6.36581081	     -0.34443675	     -0.68701982	      0.00000000	      0.00000000	     -8.59240793	      0.19533066	    -10.17677145	     -6.71844132	      8.93157688	      0.00000000	      0.00000000	      0.77599219	     -0.02301184	     -4.49895648
      1.00000000	     -7.12052629	      0.33886422	     -8.34968430	      0.07423669	      0.94639094	      0.01373980	     23.04227123	      0.03807186	     -5.97500270	     -1.02410665	     -1.10733598	      0.00000000	      0.00000000	     -8.86279855	      0.05923820	    -10.05243020	     -7.42759714	      8.80540731	      0.00000000	      0.00000000	      0.84720949	      0.15178860	     -4.61159361
      1.01000000	     -7.04535975	      0.30849839	     -8.10137388	      0.07601673	      0.94592467	      0.01529047	     22.79138862	      0.08611943	     -5.59387924	     -1.73499212	     -1.60578035	      0.00000000	      0.00000000	     -9.07832849	     -0.11255621	     -9.88440648	     -8.28374400	      8.62988671	      0.00000000	      0.00000000	      0.91356924	      0.35208986	     -4.66140103
      1.02000000	     -6.97631518	      0.24900230	     -7.86935812	      0.07783332	      0.94560267	      0.01697848	     22.52686101	      0.15260095	     -5.24641477	     -2.44309881	     -2.15713538	      0.00000000	      0.00000000	     -9.21835853	     -0.33460349	     -9.71994685	     -9.28450947	      8.43296965	      0.00000000	      0.00000000	      0.99320753	      0.58232829	     -4.69149670
      1.03000000	     -6.92935027	      0.15618013	     -7.64793855	      0.07970060	      0.94545916	      0.01862634	     22.26844682	      0.22602318	     -4.94754983	     -3.13762262	     -2.68748864	      0.00000000	      0.00000000	     -9.28321345	     -0.59339732	     -9.56023847	    -10.37339708	      8.15845627	      0.00000000	      0.00000000	      1.09417620	      0.86584290	     -4.69484456
      1.04000000	     -7.06339838	     -0.10001531	     -7.35868445	      0.08156344	      0.94527730	      0.02041401	     22.12665749	      0.45529968	     -4.92485724	     -3.73989556	     -3.25130002	      0.00000000	      0.00000000	     -8.97990264	     -1.10930014	     -9.43562174	    -11.87862364	      8.19590972	      0.00000000	      0.00000000	      1.39756678	      1.33440505	     -4.78260634
      1.05000000	     -6.99235061	     -0.19051457	     -7.24654255	      0.08347835	      0.94558825	      0.02239195	     21.85201939	      0.52404697	     -4.68435254	     -4.47269915	     -3.55561015	      0.00000000	      0.00000000	     -9.00801291	     -1.37550178	     -9.21753500	    -13.03140621	      7.54646934	      0.00000000	      0.00000000	      1.47966485	      1.59409607	     -4.66822837
      1.06000000	     -7.09395904	     -0.47478266	     -7.02019805	      0.08525999	      0.94590472	      0.02442461	     21.78071201	      0.76521087	     -4.73088886	     -5.37794679	     -3.53792603	      0.00000000	      0.00000000	     -8.61953328	     -1.94149223	     -9.15793822	    -14.65470969	      7.03895604	      0.00000000	      0.00000000	      1.71893314	      2.06780312	     -4.70426747
      1.07000000	     -7.04027283	     -0.66414400	     -6.90342235	      0.08703684	      0.94666261	      0.02663944	     21.54354592	      0.92259988	     -4.69549800	     -6.23841370	     -3.45797554	      0.00000000	      0.00000000	     -8.39871466	     -2.37405274	     -9.06112312	    -16.18539582	      6.17992760	      0.00000000	      0.00000000	      1.78001173	      2.40246912	     -4.61088082
      1.08000000	     -6.92574853	     -0.85892728	     -6.81774723	      0.08876907	      0.94768555	      0.02894828	     21.22915454	      1.08955411	     -4.67157475	     -7.09923233	     -3.28384167	      0.00000000	      0.00000000	     -8.15311103	     -2.82059918	     -8.95651979	    -17.84974605	      5.16459505	      0.00000000	      0.00000000	      1.75613500	      2.72435310	     -4.47926276
      1.09000000	     -6.83547983	     -1.12249321	     -6.69987071	      0.09043598	      0.94883147	      0.03136211	     20.94431247	      1.33542765	     -4.81620972	     -8.04144083	     -2.77094282	      0.00000000	      0.00000000	     -7.76752708	     -3.38368326	     -8.87338416	    -19.69277732	      4.05492577	      0.00000000	      0.00000000	      1.74005323	      3.09902876	     -4.37383263
